<svg version="1" xmlns="http://www.w3.org/2000/svg" width="341.333" height="341.333" viewBox="0 0 256.000000 256.000000"><path d="M109 9.5c-10.1 1.8-10.4 1.9-19.5 5-29.2 9.7-54.8 32.1-68.9 60.1-3.9 7.8-9.2 22.9-10.2 28.9-.3 2-.8 4.7-1.1 5.9-1.2 5.5-1.1 28.7.2 37.4 7.7 49.5 46.9 89.6 97 99.3 7.6 1.4 29.6 1.8 38.7.7 13.5-1.8 30.6-7.8 43.7-15.5 30.2-17.8 51.9-49.4 57.5-83.9 1.5-9.2 1.8-30.3.5-36.4-.4-1.9-1-5.3-1.3-7.4-1.1-6.9-6.6-21.8-11.5-31.1-16.5-31.5-45.4-53.7-80-61.6C143 8.3 119.6 7.6 109 9.5zm87.7 79.7c22.8 7.4 33.6 35 22.5 57.5-2.4 5-10.2 13.3-12.4 13.3-.5 0-.7.3-.4.8.2.4 5.4.7 11.5.6H229V168.7l-24.9.1c-27 .1-32.7-.7-41-5.5-2.5-1.4-6.2-4.4-8.3-6.5l-3.8-3.9V168l-5.2-.2-5.1-.3-22.8-33c-12.6-18.1-23.2-33.1-23.6-33.2-.5-.2-.8 14.7-.8 32.9v33.3l-4.1.3-4 .3.1-35.3c0-19.4-.1-35.8-.2-36.3-.4-1.3-20.8-1.4-22-.1-.4.4-.8 16.6-.8 35.9v35.2l-3.7.3c-2.1.2-3.9 0-3.9-.5-.1-.4-.2-16.8-.3-36.3l-.1-35.5h-26l-.3-3.6-.3-3.5 33.6-.1c23.7 0 34 .3 34.6 1.1 1.2 1.2 25 35.1 37.4 53.1 4.3 6.3 8.3 11.5 8.7 11.5.4 0 .8-14.8.8-32.9v-33l4 .2 4 .2v14.9l3.4-4c4-4.6 13.5-10.1 19.2-11 2.1-.3 4.1-.8 4.4-1.1 1-1 13.8.3 18.7 1.9z"/><path d="M176.7 95.2c-11 2.3-20.9 12.6-23.3 23.9-4.7 22.5 9.2 42 30.1 42.1 18.8.1 32-14.9 31.1-35.3-.9-20.8-18.3-34.9-37.9-30.7z"/></svg>